<mxfile host="app.diagrams.net" modified="2024-03-30T01:22:40.626Z" agent="Mozilla/5.0 (Windows NT 10.0; Win64; x64) AppleWebKit/537.36 (KHTML, like Gecko) Chrome/123.0.0.0 Safari/537.36" etag="Z9CGXCXR7RAzBVgqr7Qx" version="24.2.1" type="github">
  <diagram name="Page-1" id="c7558073-3199-34d8-9f00-42111426c3f3">
    <mxGraphModel dx="880" dy="468" grid="1" gridSize="10" guides="1" tooltips="1" connect="1" arrows="1" fold="1" page="1" pageScale="1" pageWidth="826" pageHeight="1169" background="none" math="0" shadow="0">
      <root>
        <mxCell id="0" />
        <mxCell id="1" parent="0" />
        <mxCell id="zENbw9tP2hyctsfZmFY8-98" value="&lt;font style=&quot;font-size: 19px;&quot;&gt;&lt;b&gt;start&lt;/b&gt;&lt;/font&gt;" style="ellipse;whiteSpace=wrap;html=1;" vertex="1" parent="1">
          <mxGeometry x="230" y="10" width="120" height="60" as="geometry" />
        </mxCell>
        <mxCell id="zENbw9tP2hyctsfZmFY8-99" value="&lt;b&gt;&lt;font style=&quot;font-size: 15px;&quot;&gt;String input&lt;/font&gt;&lt;/b&gt;" style="shape=parallelogram;perimeter=parallelogramPerimeter;whiteSpace=wrap;html=1;fixedSize=1;" vertex="1" parent="1">
          <mxGeometry x="220" y="220" width="120" height="60" as="geometry" />
        </mxCell>
        <mxCell id="zENbw9tP2hyctsfZmFY8-100" value="" style="shape=singleArrow;direction=south;whiteSpace=wrap;html=1;" vertex="1" parent="1">
          <mxGeometry x="260" y="70" width="60" height="50" as="geometry" />
        </mxCell>
        <mxCell id="zENbw9tP2hyctsfZmFY8-101" value="&#xa;&lt;b style=&quot;forced-color-adjust: none; color: rgb(0, 0, 0); font-family: Helvetica; font-size: 17px; font-style: normal; font-variant-ligatures: normal; font-variant-caps: normal; letter-spacing: normal; orphans: 2; text-align: center; text-indent: 0px; text-transform: none; widows: 2; word-spacing: 0px; -webkit-text-stroke-width: 0px; white-space: normal; background-color: rgb(251, 251, 251); text-decoration-thickness: initial; text-decoration-style: initial; text-decoration-color: initial;&quot;&gt;Prototypes&lt;/b&gt;&#xa;&#xa;" style="rounded=0;whiteSpace=wrap;html=1;" vertex="1" parent="1">
          <mxGeometry x="230" y="120" width="120" height="50" as="geometry" />
        </mxCell>
        <mxCell id="zENbw9tP2hyctsfZmFY8-105" value="" style="shape=singleArrow;direction=south;whiteSpace=wrap;html=1;" vertex="1" parent="1">
          <mxGeometry x="260" y="170" width="60" height="50" as="geometry" />
        </mxCell>
        <mxCell id="zENbw9tP2hyctsfZmFY8-106" value="&lt;b&gt;&lt;font style=&quot;font-size: 15px;&quot;&gt;Is NULL&lt;/font&gt;&lt;/b&gt;" style="rhombus;whiteSpace=wrap;html=1;" vertex="1" parent="1">
          <mxGeometry x="240" y="330" width="80" height="80" as="geometry" />
        </mxCell>
        <mxCell id="zENbw9tP2hyctsfZmFY8-107" value="" style="shape=singleArrow;direction=south;whiteSpace=wrap;html=1;" vertex="1" parent="1">
          <mxGeometry x="250" y="280" width="60" height="50" as="geometry" />
        </mxCell>
        <mxCell id="zENbw9tP2hyctsfZmFY8-108" value="&lt;b&gt;&lt;font style=&quot;font-size: 16px;&quot;&gt;Return (i)&lt;/font&gt;&lt;/b&gt;" style="rounded=0;whiteSpace=wrap;html=1;" vertex="1" parent="1">
          <mxGeometry y="340" width="120" height="60" as="geometry" />
        </mxCell>
        <mxCell id="zENbw9tP2hyctsfZmFY8-109" value="" style="shape=singleArrow;direction=west;whiteSpace=wrap;html=1;" vertex="1" parent="1">
          <mxGeometry x="120" y="340" width="120" height="60" as="geometry" />
        </mxCell>
        <mxCell id="zENbw9tP2hyctsfZmFY8-110" value="&lt;b&gt;YES&lt;/b&gt;" style="text;html=1;align=center;verticalAlign=middle;whiteSpace=wrap;rounded=0;" vertex="1" parent="1">
          <mxGeometry x="160" y="330" width="60" height="30" as="geometry" />
        </mxCell>
        <mxCell id="zENbw9tP2hyctsfZmFY8-111" value="" style="shape=singleArrow;direction=south;whiteSpace=wrap;html=1;" vertex="1" parent="1">
          <mxGeometry x="250" y="410" width="60" height="70" as="geometry" />
        </mxCell>
        <mxCell id="zENbw9tP2hyctsfZmFY8-112" value="&lt;b&gt;NO&lt;/b&gt;" style="text;html=1;align=center;verticalAlign=middle;whiteSpace=wrap;rounded=0;" vertex="1" parent="1">
          <mxGeometry x="210" y="430" width="60" height="30" as="geometry" />
        </mxCell>
        <mxCell id="zENbw9tP2hyctsfZmFY8-113" value="&lt;b&gt;&lt;font style=&quot;font-size: 12px;&quot;&gt;parse through the string&lt;/font&gt;&lt;/b&gt;" style="rounded=0;whiteSpace=wrap;html=1;" vertex="1" parent="1">
          <mxGeometry x="220" y="480" width="120" height="50" as="geometry" />
        </mxCell>
        <mxCell id="zENbw9tP2hyctsfZmFY8-114" value="*format ==&amp;nbsp; %" style="rhombus;whiteSpace=wrap;html=1;" vertex="1" parent="1">
          <mxGeometry x="230" y="570" width="100" height="60" as="geometry" />
        </mxCell>
        <mxCell id="zENbw9tP2hyctsfZmFY8-116" value="" style="endArrow=classic;html=1;rounded=0;exitX=0.5;exitY=1;exitDx=0;exitDy=0;entryX=0.5;entryY=0;entryDx=0;entryDy=0;" edge="1" parent="1" source="zENbw9tP2hyctsfZmFY8-113" target="zENbw9tP2hyctsfZmFY8-114">
          <mxGeometry width="50" height="50" relative="1" as="geometry">
            <mxPoint x="340" y="630" as="sourcePoint" />
            <mxPoint x="390" y="580" as="targetPoint" />
          </mxGeometry>
        </mxCell>
        <mxCell id="zENbw9tP2hyctsfZmFY8-117" value="*format++" style="rounded=0;whiteSpace=wrap;html=1;" vertex="1" parent="1">
          <mxGeometry x="10" y="575" width="120" height="50" as="geometry" />
        </mxCell>
        <mxCell id="zENbw9tP2hyctsfZmFY8-118" value="" style="endArrow=classic;html=1;rounded=0;exitX=0;exitY=0.5;exitDx=0;exitDy=0;entryX=1;entryY=0.5;entryDx=0;entryDy=0;" edge="1" parent="1" source="zENbw9tP2hyctsfZmFY8-114" target="zENbw9tP2hyctsfZmFY8-117">
          <mxGeometry width="50" height="50" relative="1" as="geometry">
            <mxPoint x="340" y="630" as="sourcePoint" />
            <mxPoint x="390" y="580" as="targetPoint" />
          </mxGeometry>
        </mxCell>
        <mxCell id="zENbw9tP2hyctsfZmFY8-119" value="increment" style="text;html=1;align=center;verticalAlign=middle;whiteSpace=wrap;rounded=0;" vertex="1" parent="1">
          <mxGeometry x="150" y="580" width="60" height="30" as="geometry" />
        </mxCell>
        <mxCell id="zENbw9tP2hyctsfZmFY8-120" value="*format == NULL" style="rhombus;whiteSpace=wrap;html=1;" vertex="1" parent="1">
          <mxGeometry x="225" y="680" width="110" height="60" as="geometry" />
        </mxCell>
        <mxCell id="zENbw9tP2hyctsfZmFY8-121" value="" style="endArrow=classic;html=1;rounded=0;exitX=0.5;exitY=1;exitDx=0;exitDy=0;entryX=0.5;entryY=0;entryDx=0;entryDy=0;" edge="1" parent="1" source="zENbw9tP2hyctsfZmFY8-114" target="zENbw9tP2hyctsfZmFY8-120">
          <mxGeometry width="50" height="50" relative="1" as="geometry">
            <mxPoint x="340" y="630" as="sourcePoint" />
            <mxPoint x="390" y="580" as="targetPoint" />
          </mxGeometry>
        </mxCell>
        <mxCell id="zENbw9tP2hyctsfZmFY8-122" value="return i-1 (%)" style="rounded=0;whiteSpace=wrap;html=1;" vertex="1" parent="1">
          <mxGeometry x="10" y="690" width="120" height="40" as="geometry" />
        </mxCell>
        <mxCell id="zENbw9tP2hyctsfZmFY8-124" value="" style="endArrow=classic;html=1;rounded=0;exitX=0;exitY=0.5;exitDx=0;exitDy=0;entryX=1;entryY=0.5;entryDx=0;entryDy=0;" edge="1" parent="1" source="zENbw9tP2hyctsfZmFY8-120" target="zENbw9tP2hyctsfZmFY8-122">
          <mxGeometry width="50" height="50" relative="1" as="geometry">
            <mxPoint x="340" y="630" as="sourcePoint" />
            <mxPoint x="390" y="580" as="targetPoint" />
          </mxGeometry>
        </mxCell>
        <mxCell id="zENbw9tP2hyctsfZmFY8-125" value="&lt;b&gt;&lt;font style=&quot;font-size: 15px;&quot;&gt;END&lt;/font&gt;&lt;/b&gt;" style="ellipse;whiteSpace=wrap;html=1;" vertex="1" parent="1">
          <mxGeometry x="220" y="1350" width="160" height="110" as="geometry" />
        </mxCell>
        <mxCell id="zENbw9tP2hyctsfZmFY8-127" value="" style="endArrow=none;html=1;rounded=0;entryX=0.25;entryY=1;entryDx=0;entryDy=0;" edge="1" parent="1" target="zENbw9tP2hyctsfZmFY8-122">
          <mxGeometry width="50" height="50" relative="1" as="geometry">
            <mxPoint x="40" y="1400" as="sourcePoint" />
            <mxPoint x="390" y="890" as="targetPoint" />
          </mxGeometry>
        </mxCell>
        <mxCell id="zENbw9tP2hyctsfZmFY8-128" value="" style="endArrow=classic;html=1;rounded=0;entryX=0;entryY=0.5;entryDx=0;entryDy=0;" edge="1" parent="1" target="zENbw9tP2hyctsfZmFY8-125">
          <mxGeometry width="50" height="50" relative="1" as="geometry">
            <mxPoint x="40" y="1405" as="sourcePoint" />
            <mxPoint x="390" y="890" as="targetPoint" />
          </mxGeometry>
        </mxCell>
        <mxCell id="zENbw9tP2hyctsfZmFY8-129" value="YES" style="text;html=1;align=center;verticalAlign=middle;whiteSpace=wrap;rounded=0;fontStyle=1" vertex="1" parent="1">
          <mxGeometry x="150" y="680" width="60" height="30" as="geometry" />
        </mxCell>
        <mxCell id="zENbw9tP2hyctsfZmFY8-130" value="" style="endArrow=classic;html=1;rounded=0;exitX=0.5;exitY=1;exitDx=0;exitDy=0;entryX=1;entryY=0.75;entryDx=0;entryDy=0;" edge="1" parent="1" source="zENbw9tP2hyctsfZmFY8-120">
          <mxGeometry width="50" height="50" relative="1" as="geometry">
            <mxPoint x="340" y="870" as="sourcePoint" />
            <mxPoint x="280" y="782.5" as="targetPoint" />
          </mxGeometry>
        </mxCell>
        <mxCell id="zENbw9tP2hyctsfZmFY8-133" value="*formt == &#39;c&#39; ==&amp;gt; print_char" style="rounded=0;whiteSpace=wrap;html=1;" vertex="1" parent="1">
          <mxGeometry x="160" y="780" width="240" height="30" as="geometry" />
        </mxCell>
        <mxCell id="zENbw9tP2hyctsfZmFY8-135" value="NO" style="text;html=1;align=center;verticalAlign=middle;whiteSpace=wrap;rounded=0;fontStyle=1" vertex="1" parent="1">
          <mxGeometry x="220" y="740" width="60" height="30" as="geometry" />
        </mxCell>
        <mxCell id="zENbw9tP2hyctsfZmFY8-136" value="*formt == &#39;s&#39; ==&amp;gt; print_string" style="rounded=0;whiteSpace=wrap;html=1;" vertex="1" parent="1">
          <mxGeometry x="160" y="850" width="240" height="30" as="geometry" />
        </mxCell>
        <mxCell id="zENbw9tP2hyctsfZmFY8-137" value="*format == &#39;i&#39; || &#39;d&#39; ==&amp;gt; print_decimal" style="rounded=0;whiteSpace=wrap;html=1;" vertex="1" parent="1">
          <mxGeometry x="160" y="910" width="240" height="30" as="geometry" />
        </mxCell>
        <mxCell id="zENbw9tP2hyctsfZmFY8-138" value="*format == &#39;u&#39; ==&amp;gt; print_unsigned" style="rounded=0;whiteSpace=wrap;html=1;" vertex="1" parent="1">
          <mxGeometry x="160" y="980" width="240" height="30" as="geometry" />
        </mxCell>
        <mxCell id="zENbw9tP2hyctsfZmFY8-139" value="*format == &#39;x&#39; ==&amp;gt;print_hex_low" style="rounded=0;whiteSpace=wrap;html=1;" vertex="1" parent="1">
          <mxGeometry x="160" y="1040" width="240" height="30" as="geometry" />
        </mxCell>
        <mxCell id="zENbw9tP2hyctsfZmFY8-140" value="*format == &#39;X&#39; ==&amp;gt;print_hex_upper" style="rounded=0;whiteSpace=wrap;html=1;" vertex="1" parent="1">
          <mxGeometry x="160" y="1100" width="240" height="30" as="geometry" />
        </mxCell>
        <mxCell id="zENbw9tP2hyctsfZmFY8-141" value="*format == &#39;o&#39; ==&amp;gt;print_oct" style="rounded=0;whiteSpace=wrap;html=1;" vertex="1" parent="1">
          <mxGeometry x="160" y="1169" width="240" height="30" as="geometry" />
        </mxCell>
        <mxCell id="zENbw9tP2hyctsfZmFY8-142" value="*format == &#39;%&#39; ==&amp;gt;print_percent" style="rounded=0;whiteSpace=wrap;html=1;" vertex="1" parent="1">
          <mxGeometry x="160" y="1230" width="240" height="30" as="geometry" />
        </mxCell>
        <mxCell id="zENbw9tP2hyctsfZmFY8-143" value="" style="endArrow=classic;html=1;rounded=0;exitX=0.5;exitY=1;exitDx=0;exitDy=0;entryX=0.5;entryY=0;entryDx=0;entryDy=0;entryPerimeter=0;" edge="1" parent="1" source="zENbw9tP2hyctsfZmFY8-133" target="zENbw9tP2hyctsfZmFY8-136">
          <mxGeometry width="50" height="50" relative="1" as="geometry">
            <mxPoint x="340" y="960" as="sourcePoint" />
            <mxPoint x="390" y="910" as="targetPoint" />
          </mxGeometry>
        </mxCell>
        <mxCell id="zENbw9tP2hyctsfZmFY8-144" value="" style="endArrow=classic;html=1;rounded=0;exitX=0.5;exitY=1;exitDx=0;exitDy=0;entryX=0.5;entryY=0;entryDx=0;entryDy=0;" edge="1" parent="1" source="zENbw9tP2hyctsfZmFY8-136" target="zENbw9tP2hyctsfZmFY8-137">
          <mxGeometry width="50" height="50" relative="1" as="geometry">
            <mxPoint x="340" y="960" as="sourcePoint" />
            <mxPoint x="390" y="910" as="targetPoint" />
          </mxGeometry>
        </mxCell>
        <mxCell id="zENbw9tP2hyctsfZmFY8-145" value="" style="endArrow=classic;html=1;rounded=0;exitX=0.5;exitY=1;exitDx=0;exitDy=0;entryX=0.5;entryY=0;entryDx=0;entryDy=0;" edge="1" parent="1" source="zENbw9tP2hyctsfZmFY8-137" target="zENbw9tP2hyctsfZmFY8-138">
          <mxGeometry width="50" height="50" relative="1" as="geometry">
            <mxPoint x="340" y="960" as="sourcePoint" />
            <mxPoint x="390" y="910" as="targetPoint" />
          </mxGeometry>
        </mxCell>
        <mxCell id="zENbw9tP2hyctsfZmFY8-147" value="" style="endArrow=classic;html=1;rounded=0;exitX=0.5;exitY=1;exitDx=0;exitDy=0;entryX=0.496;entryY=0;entryDx=0;entryDy=0;entryPerimeter=0;" edge="1" parent="1" source="zENbw9tP2hyctsfZmFY8-138" target="zENbw9tP2hyctsfZmFY8-139">
          <mxGeometry width="50" height="50" relative="1" as="geometry">
            <mxPoint x="340" y="960" as="sourcePoint" />
            <mxPoint x="390" y="910" as="targetPoint" />
          </mxGeometry>
        </mxCell>
        <mxCell id="zENbw9tP2hyctsfZmFY8-148" value="" style="endArrow=classic;html=1;rounded=0;exitX=0.5;exitY=1;exitDx=0;exitDy=0;entryX=0.5;entryY=0;entryDx=0;entryDy=0;" edge="1" parent="1" source="zENbw9tP2hyctsfZmFY8-139" target="zENbw9tP2hyctsfZmFY8-140">
          <mxGeometry width="50" height="50" relative="1" as="geometry">
            <mxPoint x="340" y="1130" as="sourcePoint" />
            <mxPoint x="390" y="1080" as="targetPoint" />
          </mxGeometry>
        </mxCell>
        <mxCell id="zENbw9tP2hyctsfZmFY8-149" value="" style="endArrow=classic;html=1;rounded=0;exitX=0.5;exitY=1;exitDx=0;exitDy=0;entryX=0.5;entryY=0;entryDx=0;entryDy=0;" edge="1" parent="1" source="zENbw9tP2hyctsfZmFY8-140" target="zENbw9tP2hyctsfZmFY8-141">
          <mxGeometry width="50" height="50" relative="1" as="geometry">
            <mxPoint x="340" y="1130" as="sourcePoint" />
            <mxPoint x="390" y="1080" as="targetPoint" />
          </mxGeometry>
        </mxCell>
        <mxCell id="zENbw9tP2hyctsfZmFY8-150" value="" style="endArrow=classic;html=1;rounded=0;entryX=0.5;entryY=0;entryDx=0;entryDy=0;" edge="1" parent="1" target="zENbw9tP2hyctsfZmFY8-142">
          <mxGeometry width="50" height="50" relative="1" as="geometry">
            <mxPoint x="280" y="1200" as="sourcePoint" />
            <mxPoint x="390" y="1080" as="targetPoint" />
          </mxGeometry>
        </mxCell>
        <mxCell id="zENbw9tP2hyctsfZmFY8-152" value="return(*format)" style="rounded=0;whiteSpace=wrap;html=1;" vertex="1" parent="1">
          <mxGeometry x="530" y="630" width="240" height="40" as="geometry" />
        </mxCell>
        <mxCell id="zENbw9tP2hyctsfZmFY8-153" value="" style="endArrow=classic;html=1;rounded=0;entryX=0;entryY=0.5;entryDx=0;entryDy=0;" edge="1" parent="1" target="zENbw9tP2hyctsfZmFY8-152">
          <mxGeometry width="50" height="50" relative="1" as="geometry">
            <mxPoint x="280" y="650" as="sourcePoint" />
            <mxPoint x="390" y="700" as="targetPoint" />
          </mxGeometry>
        </mxCell>
        <mxCell id="zENbw9tP2hyctsfZmFY8-154" value="YES" style="text;html=1;align=center;verticalAlign=middle;whiteSpace=wrap;rounded=0;fontStyle=1" vertex="1" parent="1">
          <mxGeometry x="220" y="630" width="60" height="30" as="geometry" />
        </mxCell>
        <mxCell id="zENbw9tP2hyctsfZmFY8-155" value="NO" style="text;html=1;align=center;verticalAlign=middle;whiteSpace=wrap;rounded=0;fontStyle=1" vertex="1" parent="1">
          <mxGeometry x="370" y="620" width="60" height="30" as="geometry" />
        </mxCell>
        <mxCell id="zENbw9tP2hyctsfZmFY8-157" value="" style="endArrow=classic;html=1;rounded=0;exitX=0.5;exitY=1;exitDx=0;exitDy=0;" edge="1" parent="1" source="zENbw9tP2hyctsfZmFY8-142">
          <mxGeometry width="50" height="50" relative="1" as="geometry">
            <mxPoint x="350" y="1260" as="sourcePoint" />
            <mxPoint x="280" y="1360" as="targetPoint" />
          </mxGeometry>
        </mxCell>
        <mxCell id="zENbw9tP2hyctsfZmFY8-158" value="" style="endArrow=none;html=1;rounded=0;entryX=0.967;entryY=1;entryDx=0;entryDy=0;entryPerimeter=0;" edge="1" parent="1" target="zENbw9tP2hyctsfZmFY8-152">
          <mxGeometry width="50" height="50" relative="1" as="geometry">
            <mxPoint x="760" y="1440" as="sourcePoint" />
            <mxPoint x="400" y="870" as="targetPoint" />
          </mxGeometry>
        </mxCell>
        <mxCell id="zENbw9tP2hyctsfZmFY8-159" value="" style="endArrow=classic;html=1;rounded=0;entryX=0.969;entryY=0.782;entryDx=0;entryDy=0;entryPerimeter=0;" edge="1" parent="1" target="zENbw9tP2hyctsfZmFY8-125">
          <mxGeometry width="50" height="50" relative="1" as="geometry">
            <mxPoint x="760" y="1436" as="sourcePoint" />
            <mxPoint x="400" y="1280" as="targetPoint" />
          </mxGeometry>
        </mxCell>
        <mxCell id="zENbw9tP2hyctsfZmFY8-160" value="" style="endArrow=none;html=1;rounded=0;entryX=1;entryY=0.75;entryDx=0;entryDy=0;" edge="1" parent="1" target="zENbw9tP2hyctsfZmFY8-133">
          <mxGeometry width="50" height="50" relative="1" as="geometry">
            <mxPoint x="720" y="800" as="sourcePoint" />
            <mxPoint x="400" y="870" as="targetPoint" />
          </mxGeometry>
        </mxCell>
        <mxCell id="zENbw9tP2hyctsfZmFY8-161" value="" style="endArrow=none;html=1;rounded=0;" edge="1" parent="1">
          <mxGeometry width="50" height="50" relative="1" as="geometry">
            <mxPoint x="680" y="870" as="sourcePoint" />
            <mxPoint x="400" y="870" as="targetPoint" />
          </mxGeometry>
        </mxCell>
        <mxCell id="zENbw9tP2hyctsfZmFY8-162" value="" style="endArrow=none;html=1;rounded=0;exitX=1;exitY=0.25;exitDx=0;exitDy=0;" edge="1" parent="1" source="zENbw9tP2hyctsfZmFY8-137">
          <mxGeometry width="50" height="50" relative="1" as="geometry">
            <mxPoint x="350" y="920" as="sourcePoint" />
            <mxPoint x="640" y="918" as="targetPoint" />
          </mxGeometry>
        </mxCell>
        <mxCell id="zENbw9tP2hyctsfZmFY8-163" value="" style="endArrow=none;html=1;rounded=0;entryX=1;entryY=0.75;entryDx=0;entryDy=0;" edge="1" parent="1" target="zENbw9tP2hyctsfZmFY8-138">
          <mxGeometry width="50" height="50" relative="1" as="geometry">
            <mxPoint x="600" y="1000" as="sourcePoint" />
            <mxPoint x="400" y="1030" as="targetPoint" />
          </mxGeometry>
        </mxCell>
        <mxCell id="zENbw9tP2hyctsfZmFY8-164" value="" style="endArrow=none;html=1;rounded=0;entryX=1;entryY=0.25;entryDx=0;entryDy=0;" edge="1" parent="1" target="zENbw9tP2hyctsfZmFY8-139">
          <mxGeometry width="50" height="50" relative="1" as="geometry">
            <mxPoint x="560" y="1050" as="sourcePoint" />
            <mxPoint x="400" y="1030" as="targetPoint" />
          </mxGeometry>
        </mxCell>
        <mxCell id="zENbw9tP2hyctsfZmFY8-165" value="" style="endArrow=none;html=1;rounded=0;exitX=1;exitY=0.5;exitDx=0;exitDy=0;" edge="1" parent="1" source="zENbw9tP2hyctsfZmFY8-140">
          <mxGeometry width="50" height="50" relative="1" as="geometry">
            <mxPoint x="350" y="1080" as="sourcePoint" />
            <mxPoint x="540" y="1115" as="targetPoint" />
          </mxGeometry>
        </mxCell>
        <mxCell id="zENbw9tP2hyctsfZmFY8-166" value="" style="endArrow=none;html=1;rounded=0;entryX=1;entryY=0.25;entryDx=0;entryDy=0;" edge="1" parent="1" target="zENbw9tP2hyctsfZmFY8-141">
          <mxGeometry width="50" height="50" relative="1" as="geometry">
            <mxPoint x="520" y="1177" as="sourcePoint" />
            <mxPoint x="400" y="1030" as="targetPoint" />
          </mxGeometry>
        </mxCell>
        <mxCell id="zENbw9tP2hyctsfZmFY8-167" value="" style="endArrow=none;html=1;rounded=0;entryX=1;entryY=0.25;entryDx=0;entryDy=0;" edge="1" parent="1" target="zENbw9tP2hyctsfZmFY8-142">
          <mxGeometry width="50" height="50" relative="1" as="geometry">
            <mxPoint x="480" y="1238" as="sourcePoint" />
            <mxPoint x="400" y="1140" as="targetPoint" />
          </mxGeometry>
        </mxCell>
        <mxCell id="zENbw9tP2hyctsfZmFY8-168" value="" style="endArrow=none;html=1;rounded=0;" edge="1" parent="1">
          <mxGeometry width="50" height="50" relative="1" as="geometry">
            <mxPoint x="480" y="1320" as="sourcePoint" />
            <mxPoint x="480" y="1240" as="targetPoint" />
          </mxGeometry>
        </mxCell>
        <mxCell id="zENbw9tP2hyctsfZmFY8-169" value="" style="endArrow=none;html=1;rounded=0;" edge="1" parent="1">
          <mxGeometry width="50" height="50" relative="1" as="geometry">
            <mxPoint x="520" y="1330" as="sourcePoint" />
            <mxPoint x="520" y="1180" as="targetPoint" />
          </mxGeometry>
        </mxCell>
        <mxCell id="zENbw9tP2hyctsfZmFY8-170" value="" style="endArrow=none;html=1;rounded=0;" edge="1" parent="1">
          <mxGeometry width="50" height="50" relative="1" as="geometry">
            <mxPoint x="540" y="1360" as="sourcePoint" />
            <mxPoint x="540" y="1120" as="targetPoint" />
          </mxGeometry>
        </mxCell>
        <mxCell id="zENbw9tP2hyctsfZmFY8-171" value="" style="endArrow=none;html=1;rounded=0;" edge="1" parent="1">
          <mxGeometry width="50" height="50" relative="1" as="geometry">
            <mxPoint x="560" y="1370" as="sourcePoint" />
            <mxPoint x="560" y="1050" as="targetPoint" />
          </mxGeometry>
        </mxCell>
        <mxCell id="zENbw9tP2hyctsfZmFY8-172" value="" style="endArrow=none;html=1;rounded=0;" edge="1" parent="1">
          <mxGeometry width="50" height="50" relative="1" as="geometry">
            <mxPoint x="600" y="1380" as="sourcePoint" />
            <mxPoint x="600" y="1010" as="targetPoint" />
          </mxGeometry>
        </mxCell>
        <mxCell id="zENbw9tP2hyctsfZmFY8-173" value="" style="endArrow=none;html=1;rounded=0;" edge="1" parent="1">
          <mxGeometry width="50" height="50" relative="1" as="geometry">
            <mxPoint x="640" y="1380" as="sourcePoint" />
            <mxPoint x="640" y="920" as="targetPoint" />
          </mxGeometry>
        </mxCell>
        <mxCell id="zENbw9tP2hyctsfZmFY8-174" value="" style="endArrow=none;html=1;rounded=0;" edge="1" parent="1">
          <mxGeometry width="50" height="50" relative="1" as="geometry">
            <mxPoint x="680" y="1390" as="sourcePoint" />
            <mxPoint x="680" y="870" as="targetPoint" />
          </mxGeometry>
        </mxCell>
        <mxCell id="zENbw9tP2hyctsfZmFY8-175" value="" style="endArrow=none;html=1;rounded=0;" edge="1" parent="1">
          <mxGeometry width="50" height="50" relative="1" as="geometry">
            <mxPoint x="720" y="1400" as="sourcePoint" />
            <mxPoint x="720" y="800" as="targetPoint" />
          </mxGeometry>
        </mxCell>
        <mxCell id="zENbw9tP2hyctsfZmFY8-176" value="" style="endArrow=classic;html=1;rounded=0;entryX=1;entryY=0.5;entryDx=0;entryDy=0;" edge="1" parent="1" target="zENbw9tP2hyctsfZmFY8-125">
          <mxGeometry width="50" height="50" relative="1" as="geometry">
            <mxPoint x="720" y="1400" as="sourcePoint" />
            <mxPoint x="400" y="1260" as="targetPoint" />
          </mxGeometry>
        </mxCell>
        <mxCell id="zENbw9tP2hyctsfZmFY8-177" value="" style="endArrow=classic;html=1;rounded=0;entryX=1.025;entryY=0.409;entryDx=0;entryDy=0;entryPerimeter=0;" edge="1" parent="1" target="zENbw9tP2hyctsfZmFY8-125">
          <mxGeometry width="50" height="50" relative="1" as="geometry">
            <mxPoint x="680" y="1390" as="sourcePoint" />
            <mxPoint x="400" y="1260" as="targetPoint" />
          </mxGeometry>
        </mxCell>
        <mxCell id="zENbw9tP2hyctsfZmFY8-178" value="" style="endArrow=classic;html=1;rounded=0;entryX=1.025;entryY=0.364;entryDx=0;entryDy=0;entryPerimeter=0;" edge="1" parent="1" target="zENbw9tP2hyctsfZmFY8-125">
          <mxGeometry width="50" height="50" relative="1" as="geometry">
            <mxPoint x="640" y="1380" as="sourcePoint" />
            <mxPoint x="400" y="1260" as="targetPoint" />
          </mxGeometry>
        </mxCell>
        <mxCell id="zENbw9tP2hyctsfZmFY8-179" value="" style="endArrow=classic;html=1;rounded=0;" edge="1" parent="1">
          <mxGeometry width="50" height="50" relative="1" as="geometry">
            <mxPoint x="560" y="1370" as="sourcePoint" />
            <mxPoint x="390" y="1390" as="targetPoint" />
          </mxGeometry>
        </mxCell>
        <mxCell id="zENbw9tP2hyctsfZmFY8-180" value="" style="endArrow=classic;html=1;rounded=0;" edge="1" parent="1">
          <mxGeometry width="50" height="50" relative="1" as="geometry">
            <mxPoint x="540" y="1360" as="sourcePoint" />
            <mxPoint x="390" y="1390" as="targetPoint" />
          </mxGeometry>
        </mxCell>
        <mxCell id="zENbw9tP2hyctsfZmFY8-181" value="" style="endArrow=classic;html=1;rounded=0;entryX=1.013;entryY=0.355;entryDx=0;entryDy=0;entryPerimeter=0;" edge="1" parent="1" target="zENbw9tP2hyctsfZmFY8-125">
          <mxGeometry width="50" height="50" relative="1" as="geometry">
            <mxPoint x="520" y="1330" as="sourcePoint" />
            <mxPoint x="400" y="1260" as="targetPoint" />
          </mxGeometry>
        </mxCell>
        <mxCell id="zENbw9tP2hyctsfZmFY8-182" value="" style="endArrow=classic;html=1;rounded=0;" edge="1" parent="1" target="zENbw9tP2hyctsfZmFY8-125">
          <mxGeometry width="50" height="50" relative="1" as="geometry">
            <mxPoint x="480" y="1320" as="sourcePoint" />
            <mxPoint x="400" y="1260" as="targetPoint" />
          </mxGeometry>
        </mxCell>
      </root>
    </mxGraphModel>
  </diagram>
</mxfile>
